<svg width="200" height="200" viewBox="0 0 200 200" fill="none" xmlns="http://www.w3.org/2000/svg">
<path d="M31.25 31.25V168.75H168.75V31.25H31.25ZM43.75 43.75H156.25V156.25H43.75V43.75ZM105.444 64.7583C101.494 64.7583 99.1821 66.8692 99.1821 70.813C99.1821 74.8317 101.501 77.0752 105.444 77.0752C109.457 77.0752 111.768 74.8255 111.768 70.813C111.768 66.863 109.457 64.7583 105.444 64.7583ZM124.902 71.3501C124.152 78.9001 121.706 81.9604 115.649 82.6416V88.8428C121.231 88.8428 121.021 88.6267 121.021 89.5142V107.751C121.021 115.576 124.158 118.75 132.458 118.75C136.402 118.75 140.756 117.625 143.75 116.125L141.846 109.985C130.689 114.204 131.25 106.588 131.25 105.432V88.8306H141.846V81.897H131.25V71.3501H124.902ZM73.3032 82.5928C66.0689 82.6244 57.3364 85.5132 57.3364 96.1304C57.3364 101.23 59.9301 104.837 63.3301 106.543C59.0426 110.48 56.9946 112.317 56.9946 114.905C56.9946 116.811 57.8148 118.5 60.0586 119.519C57.6773 121.769 56.25 123.48 56.25 126.611C56.25 132.055 61.0774 135.254 73.5962 135.254C85.7087 135.254 92.7246 130.759 92.7246 122.803C92.7246 112.734 85.0344 113.144 66.7969 111.987L69.104 108.301C73.729 109.595 89.3799 110.009 89.3799 96.7407C89.3799 93.5407 88.0857 91.2964 86.792 89.7339L93.1885 89.2578V83.3252H79.6509C77.9493 82.883 75.7146 82.5822 73.3032 82.5928ZM97.2168 82.6538L96.46 88.3057C100.747 89.7994 101.086 89.5844 101.086 91.0156V111.499C101.086 112.999 101.016 112.73 96.46 113.342V118.75H116.26V113.342L112.72 112.866C111.701 112.729 111.633 112.587 111.633 111.499V82.6538H97.2168ZM73.8769 89.5142C82.3769 89.5142 82.5819 101.636 73.6694 101.636C64.6882 101.636 65.0957 89.5142 73.8769 89.5142ZM66.2476 121.362C79.5163 122.319 82.373 121.978 82.3731 124.634C82.3731 130.146 64.4775 130.143 64.4775 125.037C64.4775 123.674 65.3601 122.519 66.2476 121.362Z" fill="black"/>
</svg>
