<svg width="200" height="200" viewBox="0 0 200 200" fill="none" xmlns="http://www.w3.org/2000/svg">
<g clip-path="url(#clip0_39_33)">
<path d="M131.567 152.658C123.008 155.925 113.1 157.817 102.758 157.817C101.55 157.817 100.35 157.792 99.15 157.742L99.3167 157.75C98.325 157.792 97.1584 157.817 95.9834 157.817C85.4584 157.817 75.375 155.925 66.05 152.475L66.65 152.667L72.5084 162.442L74.8584 193.717C74.8584 195.539 77.2695 197.036 82.0917 198.208C86.9834 199.35 92.6084 200.008 98.3834 200.008C98.775 200.008 99.175 200.008 99.5667 200H99.5084C99.875 200.008 100.317 200.008 100.75 200.008C106.475 200.008 112.05 199.367 117.4 198.142L116.9 198.242C121.722 197.069 124.133 195.572 124.133 193.75L126.083 162.475L131.567 152.658ZM60.025 102.658C61.45 97.9 63.45 93.7417 65.9917 89.9917L65.8917 90.15C68.3334 86.3583 71.6334 83.3083 75.525 81.225L75.6667 81.1584C76.6417 80.7167 77.7834 80.4583 78.9917 80.4583C80.5 80.4583 81.9167 80.8667 83.1334 81.5667L83.0917 81.5417C84.1917 82.1167 85.1084 82.9084 85.8084 83.8667L85.825 83.8917C86.4084 84.525 86.825 85.325 86.9917 86.2084L87 86.2417C87.1084 86.55 87.1667 86.9084 87.1667 87.2834C87.1667 87.8334 87.0334 88.35 86.7917 88.8L86.8 88.7834C86.5084 89.3667 85.9167 89.7584 85.2334 89.7667C84.5778 89.7667 83.7306 88.8556 82.6917 87.0334C81.125 84.1667 78.9028 83.775 76.025 85.8584C73.225 87.9667 70.975 90.6417 69.4167 93.7334L69.3584 93.8583C67.5667 96.9833 65.9834 100.608 64.8 104.417L64.6917 104.808C64.1334 106.158 63.8167 107.733 63.8167 109.383C63.8167 110.608 63.9917 111.783 64.325 112.9L64.3 112.817C64.7 113.525 65.4417 114 66.3 114C68.775 113.508 70.875 112.167 72.3417 110.308L72.3584 110.283C74.35 108.4 76.0917 106.283 77.5584 103.967L77.6417 103.833L79.5917 97.975C80.1139 96.675 80.8973 96.025 81.9417 96.025C82.9862 96.025 83.5084 96.7417 83.5084 98.175C83.3334 100.408 82.775 102.467 81.8917 104.342L81.9417 104.233C81.1334 106.133 80.325 108.475 79.6834 110.883L79.5917 111.275L76.4417 121.408C76.1667 122.233 75.8334 122.942 75.4334 123.6L75.4584 123.55C75.225 124.083 74.725 124.467 74.1334 124.533C74.1167 124.533 74.0834 124.533 74.0584 124.533C73.6 124.533 73.1917 124.3 72.9584 123.95C72.775 123.508 72.6667 122.992 72.6667 122.458C72.6667 122.15 72.7 121.85 72.7667 121.567L72.7584 121.592C73.6417 117.642 74.65 114.292 75.8667 111.058L75.6917 111.592L72.9584 114.325C70.8834 116.658 68.0084 118.242 64.775 118.658L64.7084 118.667C64.625 118.675 64.5334 118.675 64.4334 118.675C63.3834 118.675 62.4 118.383 61.5584 117.875L61.5834 117.892L64.7084 148.767C64.9695 150.067 68.3556 151.5 74.8667 153.067C81.95 154.808 90.0834 155.8 98.45 155.8H99.1334H99.1H99.75C108.117 155.8 116.25 154.8 124.042 152.925L123.342 153.067C129.597 151.5 132.983 150.067 133.5 148.767L137.8 112.025L137.017 112.417C135.133 114.517 132.933 116.275 130.475 117.633L130.35 117.7C129.367 118.142 128.217 118.392 127.008 118.392C126.542 118.392 126.083 118.35 125.633 118.283L125.683 118.292C124.1 118.031 123.308 117.247 123.308 115.942C124.125 113.15 125.617 110.775 127.6 108.917L127.608 108.908L128.783 106.958C130.083 105.658 130.733 104.681 130.733 104.025C130.733 103.369 130.211 103.108 129.167 103.242C127.942 103.45 126.875 104.008 126.042 104.808C124.792 105.958 123.692 107.242 122.758 108.642L122.708 108.717C121.508 110.458 120.4 112.45 119.467 114.542L119.375 114.775L117.808 117.9L113.975 128.833C113.483 129.583 112.825 130.175 112.05 130.583L112.025 130.6C111.75 130.783 111.408 130.9 111.05 130.9C110.692 130.9 110.35 130.792 110.067 130.6C109.617 130.3 109.333 129.8 109.317 129.233L109.708 128.058C110.725 125.108 111.783 122.658 112.992 120.292L112.833 120.633L115.567 114.775C115.828 113.731 115.958 113.339 115.958 113.6C114.433 115.267 112.617 116.642 110.592 117.658L110.483 117.708C109.65 118.133 108.667 118.383 107.625 118.383C107.25 118.383 106.892 118.35 106.533 118.292L106.575 118.3C105.592 118.092 104.833 117.333 104.625 116.367V116.35L104.233 115.567C102.592 117.242 100.317 118.283 97.7917 118.3C96.0973 118.039 95.6528 116.086 96.4584 112.442C95.0084 115.858 91.7167 118.225 87.8667 118.3C87.725 118.325 87.55 118.333 87.3917 118.333C86.0417 118.333 84.875 117.525 84.35 116.367L84.3417 116.342C84.3084 115.967 84.2917 115.533 84.2917 115.092C84.2917 112.258 85 109.592 86.2584 107.258L86.2167 107.35V106.958C87 105.136 87.9112 103.053 88.95 100.708C89.7334 99.1417 90.775 98.6195 92.075 99.1417H92.4667C93.25 99.6639 93.3806 100.706 92.8584 102.267L91.6834 103.833C90.7667 105.542 89.85 107.6 89.0667 109.733L88.95 110.092C88.4278 112.436 88.6223 113.608 89.5334 113.608C90.6084 113.575 91.6167 113.292 92.5 112.808L92.4667 112.825C94.2084 111.558 95.6 109.917 96.5417 108.017L96.575 107.942C97.4667 106.425 98.2 104.667 98.6917 102.808L98.725 102.658L99.5084 100.658C100.031 99.3584 100.617 98.7084 101.267 98.7084C101.958 98.7167 102.583 99.0167 103.025 99.4833C103.547 100.006 103.547 100.917 103.025 102.217L100.292 108.467C99.6834 109.833 99.2667 111.417 99.125 113.075V113.133C99.125 114.178 100.036 114.308 101.858 113.525C102.908 113.117 103.808 112.592 104.608 111.942L104.592 111.958C104.853 110.914 106.936 105.311 110.842 95.15L114.75 85.375C115.108 84.2333 116.158 83.4167 117.4 83.4167H117.492C117.95 83.5 118.342 83.7084 118.658 84.0084C119.181 84.3972 119.311 85.1139 119.05 86.1583L111.992 103.042C110.169 107.731 109.058 110.719 108.658 112.008C108.258 113.297 108.336 113.964 108.892 114.008C110.714 114.008 113.711 111.786 117.883 107.342L118.275 106.95L119.45 104.217C119.725 102.867 120.267 101.675 121.025 100.65L121.008 100.675C121.531 100.153 121.922 99.8917 122.183 99.8917C123.228 99.8917 123.75 100.336 123.75 101.225V101.283C123.75 102.167 123.608 103.025 123.342 103.817L123.358 103.758L125.308 101.808C126.858 100 129.142 98.8583 131.692 98.8583C131.85 98.8583 132.017 98.8667 132.175 98.875H132.15C133.8 98.9917 135.092 100.358 135.092 102.025C135.092 102.092 135.092 102.15 135.083 102.217C134.217 105.767 132.433 108.808 130.008 111.2L129.225 111.592C128.742 112.267 128.342 113.042 128.067 113.875L128.05 113.933C128.05 114.194 128.311 114.325 128.833 114.325C129.908 114.042 130.833 113.492 131.567 112.758L138.233 106.9L144.092 53.7417C136.592 56.4667 127.933 58.0417 118.908 58.0417C118.692 58.0417 118.475 58.0417 118.25 58.0417H118.283C112.675 58.4167 106.125 58.625 99.5167 58.625C92.9084 58.625 86.3667 58.4084 79.8667 57.9917L80.75 58.0334C80.5667 58.0334 80.35 58.0334 80.125 58.0334C71.1 58.0334 62.4417 56.4584 54.4167 53.5667L54.9417 53.7334L60.025 102.658ZM144.85 50.275H144.458C144.458 49.2306 142.047 48.1889 137.225 47.15C131.75 46.0167 125.242 45.1834 118.608 44.8167L118.258 44.8L122.167 28.8L144.45 4.95002C145.233 4.4278 144.583 3.25558 142.5 1.43336C141.892 0.775022 141.092 0.300022 140.183 0.108355L140.15 0.100022C139.367 -0.0277561 138.844 0.0361328 138.583 0.291688L114.758 25.2334L109.675 44.3834L99.5167 43.9834C98.8 43.975 97.9584 43.9667 97.1084 43.9667C86.65 43.9667 76.3667 44.6834 66.2917 46.0667L67.4584 45.9334C58.6028 47.2334 54.175 48.6667 54.175 50.2334C54.175 52.8389 61.9917 54.6639 77.625 55.7084C84.175 56.2084 91.8167 56.4917 99.5167 56.4917C107.217 56.4917 114.858 56.2084 122.417 55.65L121.408 55.7084C137.042 54.675 144.858 52.8528 144.858 50.2417L144.85 50.275ZM117.517 52.225C117.517 52.4861 116.994 52.8139 115.95 53.2084C114.917 53.5834 113.717 53.8 112.467 53.8C112.383 53.8 112.3 53.8 112.225 53.8C112.158 53.8 112.083 53.8 112 53.8C110.75 53.8 109.558 53.5834 108.442 53.1917L108.517 53.2167C107.472 52.8278 106.95 52.5 106.95 52.2334C106.95 51.9667 107.342 51.7056 108.125 51.45L107.733 51.8417C107.733 52.3639 109.167 52.625 112.033 52.625C114.9 52.625 116.333 52.3639 116.333 51.8417L116.725 51.45C117.231 51.6945 117.483 51.9445 117.483 52.2L117.517 52.225Z" fill="black"/>
</g>
<defs>
<clipPath id="clip0_39_33">
<rect width="200" height="200" fill="white"/>
</clipPath>
</defs>
</svg>
