<svg width="200" height="200" viewBox="0 0 200 200" fill="none" xmlns="http://www.w3.org/2000/svg">
<path d="M42.4488 0.195679H51.4457V9.08474H59.6757V0.195679H68.6734V27.1133H59.6765V18.0992H51.4464V27.1133H42.4496V0.195679H42.4488ZM80.5042 9.12224H72.5843V0.195679H97.4257V9.12224H89.5019V27.1133H80.505V9.12224H80.5042ZM101.368 0.195679H110.751L116.521 9.65388L122.286 0.195679H131.67V27.1133H122.71V13.7719L116.52 23.3422H116.366L110.172 13.7719V27.1133H101.368V0.195679ZM136.148 0.195679H145.148V18.2164H157.8V27.1133H136.148V0.195679ZM29.2917 39.4242L42.1613 183.773L99.9128 199.804L157.825 183.75L170.708 39.4238L29.2917 39.4242ZM143.863 73.6797L143.057 82.6551L142.703 86.6347H142.645H100H99.9382H74.9554L76.5734 104.762H99.9382H100H136.32H141.091L140.659 109.517L136.499 156.127L136.233 159.116L100 169.158V169.161L99.9187 169.184L63.6535 159.116L61.1726 131.319H69.364H78.9449L80.2054 145.439L99.9218 150.764L99.9382 150.759V150.757L119.685 145.429L121.738 122.468H100H99.9382H60.382L56.0308 73.6797L55.607 68.9308H99.9382H100H144.287L143.863 73.6797Z" fill="black"/>
</svg>
