<svg width="200" height="200" viewBox="0 0 200 200" fill="none" xmlns="http://www.w3.org/2000/svg">
<path fill-rule="evenodd" clip-rule="evenodd" d="M191.296 80.7211L199.663 80.7672C199.663 80.7672 184.107 101.847 182.837 103.565C182.424 104.121 181.798 104.721 181.48 105.465C180.676 107.334 179.851 111.436 179.851 111.436L172.195 111.474C172.195 111.474 173.387 107.199 173.337 104.922C173.294 102.933 172.279 100.946 171.709 98.9511C171.133 96.9316 170.352 92.9801 170.352 92.9801H178.223L179.308 97.3226L191.296 80.7211Z" fill="#1A1918"/>
<path fill-rule="evenodd" clip-rule="evenodd" d="M175.452 85.1668C176.996 86.0977 177.944 91.2328 177.944 91.2328C177.944 91.2328 169.864 91.3519 165.467 91.3519H161.668L157.054 111.436H149.997C149.997 111.436 154.389 89.6098 155.425 85.6527C155.761 84.3715 157.727 84.5914 161.046 84.5914H166.346C169.769 84.5914 173.77 84.1543 175.452 85.1668ZM142.602 94.948C142.602 94.948 142.821 93.659 141.855 92.166C141.03 90.8934 140.268 90.5973 138.096 90.5293C131.966 90.3367 132.085 94.8801 132.085 94.8801L142.602 94.948ZM149.251 89.7449C150.149 92.9859 148.437 100.601 148.437 100.601C148.437 100.601 139.494 100.452 134.595 100.601C133.072 100.648 131.249 100.436 130.796 101.144C130.158 102.137 131.029 103.666 131.767 104.311C132.617 105.055 134.272 105.139 134.867 105.215C138.843 105.72 147.164 105.345 147.164 105.345L145.722 111.728C145.722 111.728 133.963 112.318 128.082 110.914C126.92 110.637 125.832 110.079 125.096 109.286C124.895 109.069 124.721 108.773 124.531 108.518C124.38 108.314 123.938 107.644 123.739 107.114C122.396 103.535 123.896 96.6769 125.368 93.0019C125.538 92.5762 125.753 92.0359 125.979 91.5769C126.261 91.0047 126.499 90.3586 126.725 90.0164C126.876 89.7805 127.064 89.6285 127.221 89.4059C127.403 89.1426 127.614 88.8875 127.81 88.6598C128.353 88.0301 128.969 87.5848 129.71 87.0316C132.161 85.1965 136.595 83.7719 141.923 84.3172C143.929 84.5234 146.958 85.2398 148.437 87.3027C148.833 87.8535 149.029 88.9469 149.251 89.7449ZM116.886 84.5664L123.729 84.5262C123.729 84.5262 119.915 102.615 117.972 111.436H110.101C104.6 111.436 99.7012 112.117 97.6168 108.179C95.5949 104.355 97.5246 98.0664 98.4309 93.7941C99.0715 90.7707 100.421 84.591 100.421 84.591L107.51 84.5262C107.51 84.5262 105.507 94.1473 104.673 98.9512C104.375 100.672 103.759 102.292 104.402 103.564C105.013 104.775 105.868 104.862 108.473 104.922C109.298 104.941 112.001 104.922 112.001 104.922L116.886 84.5664ZM84.8609 97.5937C85.5773 95.0484 86.6223 92.2883 86.4895 89.9945C86.3457 87.5414 84.2887 85.3078 82.9613 84.8383C78.9637 83.4269 75.2211 85.4 73.7336 87.0094C71.8094 89.0937 71.1578 91.5285 70.4766 94.8805C69.9695 97.3687 69.5539 99.9957 70.4766 101.936C72.1102 105.367 77.2047 104.618 82.6898 104.651C83.5039 102.469 84.177 100.018 84.8609 97.5937ZM94.3602 87.5523C95.1414 93.2352 92.143 99.5078 90.0773 104.962C92.1836 105.153 94.0293 104.933 94.1621 105.09C94.3004 105.294 92.7504 111.601 92.2102 111.618C90.5387 111.661 84.9996 111.707 82.6898 111.707C75.1527 111.707 68.102 112.198 64.5063 108.45C63.0461 106.928 62.0363 104.316 61.7918 102.479C61.3848 99.4125 61.8949 96.0359 62.6063 93.2519C63.2496 90.7383 64.0742 88.3664 65.3203 86.1949C68.4875 80.6668 73.9969 76.5633 83.2324 77.5105C85.0238 77.6949 87.5965 78.4793 89.2035 79.4102C89.3145 79.4754 89.7031 79.7848 89.7922 79.8391C91.9637 81.2207 93.9422 84.518 94.3602 87.5523ZM61.0129 84.5992C60.557 86.6754 60.1012 89.0289 59.6207 91.0805H52.0215C52.6102 88.8062 53.0609 86.5453 53.65 84.5668C56.0816 84.5668 58.3426 84.5992 61.0133 84.5992M51.75 92.9805H59.0781C58.1199 98.2836 56.2227 106.838 54.7355 112.793C53.8047 116.519 53.1832 119.238 50.6645 121.206C50.4391 121.382 50.309 121.298 50.1215 121.477C49.6574 121.92 47.5105 122.433 46.3223 122.563C44.3898 122.772 42.2051 122.59 39.8301 122.541C40.4516 120.27 41.1547 117.542 41.7086 115.506C47.4977 116.207 47.6441 110.735 48.7648 105.465C49.4133 102.42 51.3785 94.2016 51.75 92.9805Z" fill="#1A1918"/>
<path fill-rule="evenodd" clip-rule="evenodd" d="M34.6515 106.822L34.4945 107.229C31.8187 112.44 27.0769 115.637 20.3136 115.778C17.1519 115.843 14.1394 115.032 12.1714 114.15C7.92457 112.241 4.3523 108.703 2.40152 104.922C-0.396918 99.5019 -0.901606 91.9625 4.91714 86.3312C5.00699 86.3312 4.21128 87.5523 4.30113 87.5523L4.14097 88.0734C-0.0519965 101.201 12.8664 112.451 25.4242 111.164C28.4421 110.855 32.2906 109.202 34.6515 106.822Z" fill="#21609B"/>
<path fill-rule="evenodd" clip-rule="evenodd" d="M27.0523 101.394C30.2116 101.415 33.5116 99.9387 35.4659 97.8657C33.7562 102.206 28.8058 104.995 22.1675 104.108C16.6089 103.364 11.314 97.7707 10.7687 92.1661C10.3698 88.0871 11.7913 85.6528 14.1339 82.6996C13.3198 84.2442 13.0155 85.4352 12.9398 86.195C12.0499 95.0184 19.9882 101.347 27.0523 101.394Z" fill="#21609B"/>
<path fill-rule="evenodd" clip-rule="evenodd" d="M35.1485 90.4344C34.6575 91.561 31.8297 93.6883 30.5809 93.9543C25.636 95.0078 22.4692 92.6629 20.8102 89.9945C20.5637 89.5961 20.1079 88.5078 20.0262 88.2309C19.3829 86.0434 19.6786 82.7348 21.5977 81.0223C21.0196 82.6508 20.9352 84.5422 21.2395 85.7719C21.4239 86.5152 21.9856 87.8133 22.5477 88.6297C23.5704 90.1168 24.2192 90.4781 25.5329 91.268C26.1246 91.6234 26.7594 91.9086 27.0336 91.9867C28.2793 92.3535 30.909 93.3195 35.1485 90.4344Z" fill="#21609B"/>
</svg>
