<svg width="200" height="200" viewBox="0 0 200 200" fill="none" xmlns="http://www.w3.org/2000/svg">
<g clip-path="url(#clip0_39_20)">
<path fill-rule="evenodd" clip-rule="evenodd" d="M153.28 184.321C135.83 184.321 124.55 176.002 119.05 165.122L134.35 156.26C138.38 162.84 143.61 167.671 152.88 167.671C160.66 167.671 165.63 163.778 165.63 158.408C165.63 150.328 154.85 147.171 147.24 143.911C133.68 138.141 124.68 130.891 124.68 115.581C124.68 101.491 135.42 90.752 152.21 90.752C164.15 90.752 172.75 94.9112 178.92 105.781L164.29 115.181C161.07 109.411 157.58 107.129 152.21 107.129C146.7 107.129 143.21 110.621 143.21 115.181C143.21 120.821 146.7 123.102 154.76 126.592C171.65 133.832 184.43 139.52 184.43 158.14C184.43 175.06 171.14 184.321 153.28 184.321ZM110 155.991C110 175.461 98.0099 185.752 81.3599 185.752C66.3199 185.752 57.3099 180 52.8799 170H52.7301H52.6599H52.6199L67.9099 159.312C70.8599 164.542 73.52 168.252 79.96 168.252C86.14 168.252 90 165.122 90 155.732V90H110V155.991ZM0 200H200V0H0V200Z" fill="black"/>
</g>
<defs>
<clipPath id="clip0_39_20">
<rect width="200" height="200" fill="white"/>
</clipPath>
</defs>
</svg>
