<svg width="200" height="200" viewBox="0 0 200 200" fill="none" xmlns="http://www.w3.org/2000/svg">
<g clip-path="url(#clip0_39_18)">
<path d="M100 0C155.244 0 200 44.7563 200 100C200 155.244 155.244 200 100 200C44.7563 200 0 155.244 0 100C0 44.7563 44.7563 0 100 0ZM80.1063 133.3C81.575 138.706 81.4125 143.719 79.9125 148.244L79.3875 149.744C79.1937 150.262 78.9375 150.75 78.7375 151.213C77.5687 153.656 76.0063 155.894 74.1188 157.981C68.2875 164.3 60.1875 166.706 56.7 164.688C52.925 162.506 54.8062 153.556 61.55 146.419C68.8062 138.769 79.225 133.85 79.225 133.85V133.825L80.1063 133.3ZM162.725 42.8062C158.2 25.0312 128.744 19.2063 100.875 29.1C84.275 34.9938 66.3438 44.2437 53.4187 56.3187C38.05 70.6687 35.6125 83.1688 36.625 88.375C40.2 106.8 65.4312 118.881 75.8187 127.8V127.869C72.75 129.362 50.3625 140.594 45.1187 152.25C39.4875 164.481 46 173.244 50.225 174.35C63.35 177.994 76.8562 171.35 84.1187 160.606C91.1187 150.1 90.4937 136.625 87.4687 129.981C91.6 128.875 96.4875 128.35 102.737 129.1C120.256 131.119 123.737 142.125 122.987 146.619C122.237 151.112 118.619 153.744 117.356 154.494C116.125 155.244 115.731 155.469 115.856 155.994C115.988 156.744 116.606 156.744 117.613 156.613C118.981 156.388 126.731 152.869 127.119 144.369C127.475 133.594 117.219 121.619 98.9937 121.844C91.475 122.013 86.7187 122.625 83.3687 123.994C83.1125 123.638 82.8437 123.375 82.4875 123.112C71.2312 111.006 50.3625 102.512 51.2375 86.3625C51.5062 80.5062 53.6187 65.0125 91.2437 46.2625C122.1 30.8625 146.744 35.1312 150.975 44.5062C157.1 57.8812 137.856 82.7562 105.731 86.3625C93.4875 87.7312 87.1063 83.0125 85.4813 81.2563C83.725 79.3625 83.5 79.2375 82.8375 79.6313C81.8625 80.1125 82.4812 81.75 82.8375 82.7563C83.8437 85.2563 87.7188 89.625 94.4938 91.8625C100.35 93.7562 114.744 94.8625 131.994 88.1187C151.362 80.6375 166.469 59.7688 162.1 42.25L162.725 42.8062Z" fill="black"/>
</g>
<defs>
<clipPath id="clip0_39_18">
<rect width="200" height="200" fill="white"/>
</clipPath>
</defs>
</svg>
