<svg width="40" height="40" viewBox="0 0 40 40" fill="none" xmlns="http://www.w3.org/2000/svg">
<g clip-path="url(#clip0_19_61)">
<path fill-rule="evenodd" clip-rule="evenodd" d="M8.88889 0C6.53141 0 4.27049 0.936505 2.60349 2.60349C0.936505 4.27049 0 6.53141 0 8.88889V31.1111C0 33.4686 0.936505 35.7295 2.60349 37.3965C4.27049 39.0635 6.53141 40 8.88889 40H31.1111C33.4686 40 35.7295 39.0635 37.3965 37.3965C39.0635 35.7295 40 33.4686 40 31.1111V8.88889C40 6.53141 39.0635 4.27049 37.3965 2.60349C35.7295 0.936505 33.4686 0 31.1111 0H8.88889ZM31.8489 15.6778C32.176 15.1874 32.2949 14.5872 32.1795 14.0092C32.064 13.4312 31.7237 12.9227 31.2333 12.5956C30.743 12.2685 30.1428 12.1495 29.5647 12.265C28.9867 12.3804 28.4782 12.7208 28.1511 13.2111C27.3644 14.2556 26.54 15.2556 25.5756 16.1444C24.4578 17.1756 23.3267 17.9489 22.2244 18.4067L22.2067 14.1844C22.143 13.6439 21.8831 13.1455 21.4764 12.7838C21.0696 12.4221 20.5443 12.2223 20 12.2222C18.7956 12.2911 17.7778 13.18 17.7778 14.4444V24.1622C13.4489 22.9622 11.1111 18.7622 11.1111 14.4444C11.1111 13.8551 10.877 13.2898 10.4602 12.8731C10.0435 12.4563 9.47826 12.2222 8.88889 12.2222C8.29952 12.2222 7.73429 12.4563 7.31754 12.8731C6.90079 13.2898 6.66667 13.8551 6.66667 14.4444C6.66667 22.5156 12.2444 28.8889 20 28.8889C20.5894 28.8889 21.1546 28.6548 21.5713 28.238C21.9881 27.8213 22.2222 27.256 22.2222 26.6667V23.1933C25.1822 23.4289 28.0533 25.52 29.1244 27.66C29.2493 27.9302 29.4271 28.1725 29.6473 28.3727C29.8675 28.5728 30.1258 28.7267 30.4066 28.8252C30.6874 28.9236 30.9852 28.9647 31.2822 28.9459C31.5792 28.9271 31.8694 28.8488 32.1356 28.7157C32.4018 28.5826 32.6386 28.3974 32.8318 28.1711C33.0251 27.9448 33.1709 27.6819 33.2606 27.3982C33.3504 27.1144 33.3822 26.8155 33.3542 26.5192C33.3262 26.2229 33.239 25.9353 33.0978 25.6733C32.0356 23.5467 30.0533 21.5578 27.6133 20.26C27.9422 19.9911 28.2689 19.7067 28.5911 19.4111C29.8154 18.2946 30.9084 17.042 31.8489 15.6778Z" fill="white"/>
</g>
<defs>
<clipPath id="clip0_19_61">
<rect width="40" height="40" fill="white"/>
</clipPath>
</defs>
</svg>
