<?xml version="1.0" encoding="utf-8"?><svg xmlns="http://www.w3.org/2000/svg" xmlns:xlink="http://www.w3.org/1999/xlink"><symbol viewBox="0 0 685 654" id="circle" xmlns="http://www.w3.org/2000/svg"><path d="M667.5 326.906C667.5 497.033 522.831 636.311 342.652 636.311C162.473 636.311 17.8036 497.033 17.8036 326.906C17.8036 156.778 162.473 17.5 342.652 17.5C522.831 17.5 667.5 156.778 667.5 326.906Z" stroke-width="35"/></symbol><symbol viewBox="0 0 685 654" id="circle-blur" xmlns="http://www.w3.org/2000/svg"><path d="M667.5 326.906C667.5 497.033 522.831 636.311 342.652 636.311C162.473 636.311 17.8036 497.033 17.8036 326.906C17.8036 156.778 162.473 17.5 342.652 17.5C522.831 17.5 667.5 156.778 667.5 326.906Z" stroke-width="35"/></symbol><symbol viewBox="0 0 200 200" id="css" xmlns="http://www.w3.org/2000/svg"><path d="M79.7125 18.2352V26.8359H57.7195V0.195709H79.7125V9.62149H67.1453V18.2352H79.7125ZM102.321 9.62149H111.107V0.195709H89.1113C89.1113 0.195709 89.1113 4.92696 89.1113 9.62149C92.0539 12.5641 93.5883 13.9727 97.8441 18.2285C95.3562 18.2285 89.1113 18.2367 89.1113 18.2367V26.8359H111.107V18.2352L102.321 9.62149ZM133.495 9.62149H142.28V0.195709H120.285C120.285 0.195709 120.285 4.92696 120.285 9.62149C123.227 12.5641 124.762 13.9727 129.018 18.2285C126.531 18.2285 120.285 18.2367 120.285 18.2367V26.8359H142.28V18.2352L133.495 9.62149ZM171.248 39.4969L157.887 184.218L99.9996 199.804L42.1105 184.218L28.752 39.4969H171.248ZM144.327 68.9234H99.9473H54.7832L56.943 86.3996H99.9473H102.363L99.9473 87.4051L58.5148 104.662L59.8891 121.744L99.9473 121.874L121.417 121.942L120.042 144.72L99.9473 150.378V150.36L99.7824 150.405L80.3746 145.506L79.1969 131.367H79.1328H61.1309H61.0676L63.4238 158.663L99.9473 169.463V169.443L100.013 169.463L136.341 158.859L141.055 104.662H99.9473H99.8457L99.9473 104.618L142.559 86.4L144.327 68.9234Z"/></symbol><symbol viewBox="0 0 200 200" id="git" xmlns="http://www.w3.org/2000/svg"><path d="M31.25 31.25V168.75H168.75V31.25H31.25ZM43.75 43.75H156.25V156.25H43.75V43.75ZM105.444 64.7583C101.494 64.7583 99.1821 66.8692 99.1821 70.813C99.1821 74.8317 101.501 77.0752 105.444 77.0752C109.457 77.0752 111.768 74.8255 111.768 70.813C111.768 66.863 109.457 64.7583 105.444 64.7583ZM124.902 71.3501C124.152 78.9001 121.706 81.9604 115.649 82.6416V88.8428C121.231 88.8428 121.021 88.6267 121.021 89.5142V107.751C121.021 115.576 124.158 118.75 132.458 118.75C136.402 118.75 140.756 117.625 143.75 116.125L141.846 109.985C130.689 114.204 131.25 106.588 131.25 105.432V88.8306H141.846V81.897H131.25V71.3501H124.902ZM73.3032 82.5928C66.0689 82.6244 57.3364 85.5132 57.3364 96.1304C57.3364 101.23 59.9301 104.837 63.3301 106.543C59.0426 110.48 56.9946 112.317 56.9946 114.905C56.9946 116.811 57.8148 118.5 60.0586 119.519C57.6773 121.769 56.25 123.48 56.25 126.611C56.25 132.055 61.0774 135.254 73.5962 135.254C85.7087 135.254 92.7246 130.759 92.7246 122.803C92.7246 112.734 85.0344 113.144 66.7969 111.987L69.104 108.301C73.729 109.595 89.3799 110.009 89.3799 96.7407C89.3799 93.5407 88.0857 91.2964 86.792 89.7339L93.1885 89.2578V83.3252H79.6509C77.9493 82.883 75.7146 82.5822 73.3032 82.5928ZM97.2168 82.6538L96.46 88.3057C100.747 89.7994 101.086 89.5844 101.086 91.0156V111.499C101.086 112.999 101.016 112.73 96.46 113.342V118.75H116.26V113.342L112.72 112.866C111.701 112.729 111.633 112.587 111.633 111.499V82.6538H97.2168ZM73.8769 89.5142C82.3769 89.5142 82.5819 101.636 73.6694 101.636C64.6882 101.636 65.0957 89.5142 73.8769 89.5142ZM66.2476 121.362C79.5163 122.319 82.373 121.978 82.3731 124.634C82.3731 130.146 64.4775 130.143 64.4775 125.037C64.4775 123.674 65.3601 122.519 66.2476 121.362Z"/></symbol><symbol viewBox="0 0 40 40" id="github" xmlns="http://www.w3.org/2000/svg"><g clip-path="url(#eclip0_8_27)"><path fill-rule="evenodd" clip-rule="evenodd" d="M20.0005 0.833328C15.2525 0.835792 10.6603 2.51743 7.04482 5.57753C3.42939 8.63764 1.02655 12.8767 0.265948 17.5367C-0.49465 22.1966 0.436585 26.9737 2.89316 31.0136C5.34973 35.0536 9.17144 38.0929 13.6749 39.5883C14.6685 39.7727 15.0427 39.1569 15.0427 38.6333C15.0427 38.1097 15.0228 36.5917 15.0162 34.932C9.45237 36.134 8.27668 32.5841 8.27668 32.5841C7.36925 30.2791 6.05777 29.6732 6.05777 29.6732C4.2429 28.4416 6.19356 28.4646 6.19356 28.4646C8.20383 28.6062 9.2603 30.5162 9.2603 30.5162C11.0421 33.5556 13.9399 32.6763 15.0791 32.1626C15.258 30.8751 15.7779 29.9992 16.3509 29.5019C11.9064 29.0014 7.23677 27.2956 7.23677 19.6757C7.20922 17.6995 7.94674 15.7884 9.29672 14.3378C9.09139 13.8373 8.40584 11.8154 9.49211 9.06905C9.49211 9.06905 11.1712 8.53559 14.993 11.1074C18.2712 10.216 21.7298 10.216 25.0079 11.1074C28.8264 8.53559 30.5022 9.06905 30.5022 9.06905C31.5918 11.8088 30.9063 13.8307 30.7009 14.3378C32.0552 15.7886 32.7942 17.7031 32.7642 19.6823C32.7642 27.3187 28.0846 29.0014 23.6335 29.492C24.3489 30.1111 24.9881 31.3196 24.9881 33.1769C24.9881 35.8376 24.9649 37.978 24.9649 38.6333C24.9649 39.1635 25.3259 39.7826 26.3393 39.5883C30.8433 38.0928 34.6654 35.0528 37.1219 31.0122C39.5784 26.9716 40.5092 22.1938 39.7477 17.5334C38.9863 12.873 36.5822 8.63392 32.9656 5.57434C29.349 2.51476 24.7556 0.83423 20.0071 0.833328H20.0005Z"/><path d="M13.3797 33.2921C13.3797 33.4535 13.1943 33.5918 12.9558 33.5951C12.7174 33.5984 12.522 33.4666 12.522 33.3053C12.522 33.1439 12.7074 33.0056 12.9459 33.0023C13.1843 32.999 13.3797 33.1275 13.3797 33.2921Z"/><path d="M14.9031 33.0386C14.9329 33.1999 14.7673 33.3679 14.5288 33.4074C14.2904 33.4469 14.0817 33.3514 14.0519 33.1933C14.0221 33.0353 14.1944 32.864 14.4262 32.8212C14.658 32.7784 14.8733 32.8772 14.9031 33.0386Z"/><path d="M11.7437 33.1802C11.694 33.3349 11.4688 33.4041 11.2436 33.3382C11.0184 33.2724 10.8694 33.0879 10.9124 32.9299C10.9555 32.7718 11.184 32.6994 11.4125 32.7718C11.641 32.8443 11.7868 33.0188 11.7437 33.1802Z"/><path d="M10.2434 32.5347C10.1341 32.6566 9.91219 32.6236 9.73004 32.459C9.54789 32.2943 9.50482 32.0704 9.61411 31.9519C9.7234 31.8333 9.9453 31.8663 10.1341 32.0276C10.3228 32.189 10.3593 32.4162 10.2434 32.5347V32.5347Z"/><path d="M9.1737 31.4283C9.05116 31.5139 8.84251 31.4283 8.7266 31.2571C8.69454 31.2264 8.66906 31.1895 8.65164 31.1488C8.63423 31.1081 8.62524 31.0642 8.62524 31.02C8.62524 30.9757 8.63423 30.9319 8.65164 30.8912C8.66906 30.8504 8.69454 30.8136 8.7266 30.7829C8.84913 30.7006 9.05779 30.7829 9.1737 30.9508C9.28961 31.1188 9.29293 31.3427 9.1737 31.4283V31.4283Z"/><path d="M8.38546 30.2856C8.31688 30.32 8.23841 30.3296 8.1635 30.3128C8.08858 30.296 8.02188 30.2538 7.9748 30.1934C7.84564 30.0551 7.81913 29.8641 7.91849 29.7785C8.01784 29.6929 8.19669 29.7324 8.32585 29.8707C8.45501 30.009 8.48482 30.2 8.38546 30.2856Z"/><path d="M7.5741 29.3867C7.53105 29.4855 7.37208 29.5151 7.24292 29.4459C7.11376 29.3768 7.01773 29.2484 7.06409 29.1463C7.11046 29.0442 7.26611 29.0179 7.39527 29.087C7.52443 29.1562 7.62378 29.2879 7.5741 29.3867Z"/></g><defs><clipPath id="eclip0_8_27"><rect width="40" height="40"/></clipPath></defs></symbol><symbol viewBox="0 0 200 200" id="gulp" xmlns="http://www.w3.org/2000/svg"><g clip-path="url(#fclip0_39_33)"><path d="M131.567 152.658C123.008 155.925 113.1 157.817 102.758 157.817C101.55 157.817 100.35 157.792 99.15 157.742L99.3167 157.75C98.325 157.792 97.1584 157.817 95.9834 157.817C85.4584 157.817 75.375 155.925 66.05 152.475L66.65 152.667L72.5084 162.442L74.8584 193.717C74.8584 195.539 77.2695 197.036 82.0917 198.208C86.9834 199.35 92.6084 200.008 98.3834 200.008C98.775 200.008 99.175 200.008 99.5667 200H99.5084C99.875 200.008 100.317 200.008 100.75 200.008C106.475 200.008 112.05 199.367 117.4 198.142L116.9 198.242C121.722 197.069 124.133 195.572 124.133 193.75L126.083 162.475L131.567 152.658ZM60.025 102.658C61.45 97.9 63.45 93.7417 65.9917 89.9917L65.8917 90.15C68.3334 86.3583 71.6334 83.3083 75.525 81.225L75.6667 81.1584C76.6417 80.7167 77.7834 80.4583 78.9917 80.4583C80.5 80.4583 81.9167 80.8667 83.1334 81.5667L83.0917 81.5417C84.1917 82.1167 85.1084 82.9084 85.8084 83.8667L85.825 83.8917C86.4084 84.525 86.825 85.325 86.9917 86.2084L87 86.2417C87.1084 86.55 87.1667 86.9084 87.1667 87.2834C87.1667 87.8334 87.0334 88.35 86.7917 88.8L86.8 88.7834C86.5084 89.3667 85.9167 89.7584 85.2334 89.7667C84.5778 89.7667 83.7306 88.8556 82.6917 87.0334C81.125 84.1667 78.9028 83.775 76.025 85.8584C73.225 87.9667 70.975 90.6417 69.4167 93.7334L69.3584 93.8583C67.5667 96.9833 65.9834 100.608 64.8 104.417L64.6917 104.808C64.1334 106.158 63.8167 107.733 63.8167 109.383C63.8167 110.608 63.9917 111.783 64.325 112.9L64.3 112.817C64.7 113.525 65.4417 114 66.3 114C68.775 113.508 70.875 112.167 72.3417 110.308L72.3584 110.283C74.35 108.4 76.0917 106.283 77.5584 103.967L77.6417 103.833L79.5917 97.975C80.1139 96.675 80.8973 96.025 81.9417 96.025C82.9862 96.025 83.5084 96.7417 83.5084 98.175C83.3334 100.408 82.775 102.467 81.8917 104.342L81.9417 104.233C81.1334 106.133 80.325 108.475 79.6834 110.883L79.5917 111.275L76.4417 121.408C76.1667 122.233 75.8334 122.942 75.4334 123.6L75.4584 123.55C75.225 124.083 74.725 124.467 74.1334 124.533C74.1167 124.533 74.0834 124.533 74.0584 124.533C73.6 124.533 73.1917 124.3 72.9584 123.95C72.775 123.508 72.6667 122.992 72.6667 122.458C72.6667 122.15 72.7 121.85 72.7667 121.567L72.7584 121.592C73.6417 117.642 74.65 114.292 75.8667 111.058L75.6917 111.592L72.9584 114.325C70.8834 116.658 68.0084 118.242 64.775 118.658L64.7084 118.667C64.625 118.675 64.5334 118.675 64.4334 118.675C63.3834 118.675 62.4 118.383 61.5584 117.875L61.5834 117.892L64.7084 148.767C64.9695 150.067 68.3556 151.5 74.8667 153.067C81.95 154.808 90.0834 155.8 98.45 155.8H99.1334H99.1H99.75C108.117 155.8 116.25 154.8 124.042 152.925L123.342 153.067C129.597 151.5 132.983 150.067 133.5 148.767L137.8 112.025L137.017 112.417C135.133 114.517 132.933 116.275 130.475 117.633L130.35 117.7C129.367 118.142 128.217 118.392 127.008 118.392C126.542 118.392 126.083 118.35 125.633 118.283L125.683 118.292C124.1 118.031 123.308 117.247 123.308 115.942C124.125 113.15 125.617 110.775 127.6 108.917L127.608 108.908L128.783 106.958C130.083 105.658 130.733 104.681 130.733 104.025C130.733 103.369 130.211 103.108 129.167 103.242C127.942 103.45 126.875 104.008 126.042 104.808C124.792 105.958 123.692 107.242 122.758 108.642L122.708 108.717C121.508 110.458 120.4 112.45 119.467 114.542L119.375 114.775L117.808 117.9L113.975 128.833C113.483 129.583 112.825 130.175 112.05 130.583L112.025 130.6C111.75 130.783 111.408 130.9 111.05 130.9C110.692 130.9 110.35 130.792 110.067 130.6C109.617 130.3 109.333 129.8 109.317 129.233L109.708 128.058C110.725 125.108 111.783 122.658 112.992 120.292L112.833 120.633L115.567 114.775C115.828 113.731 115.958 113.339 115.958 113.6C114.433 115.267 112.617 116.642 110.592 117.658L110.483 117.708C109.65 118.133 108.667 118.383 107.625 118.383C107.25 118.383 106.892 118.35 106.533 118.292L106.575 118.3C105.592 118.092 104.833 117.333 104.625 116.367V116.35L104.233 115.567C102.592 117.242 100.317 118.283 97.7917 118.3C96.0973 118.039 95.6528 116.086 96.4584 112.442C95.0084 115.858 91.7167 118.225 87.8667 118.3C87.725 118.325 87.55 118.333 87.3917 118.333C86.0417 118.333 84.875 117.525 84.35 116.367L84.3417 116.342C84.3084 115.967 84.2917 115.533 84.2917 115.092C84.2917 112.258 85 109.592 86.2584 107.258L86.2167 107.35V106.958C87 105.136 87.9112 103.053 88.95 100.708C89.7334 99.1417 90.775 98.6195 92.075 99.1417H92.4667C93.25 99.6639 93.3806 100.706 92.8584 102.267L91.6834 103.833C90.7667 105.542 89.85 107.6 89.0667 109.733L88.95 110.092C88.4278 112.436 88.6223 113.608 89.5334 113.608C90.6084 113.575 91.6167 113.292 92.5 112.808L92.4667 112.825C94.2084 111.558 95.6 109.917 96.5417 108.017L96.575 107.942C97.4667 106.425 98.2 104.667 98.6917 102.808L98.725 102.658L99.5084 100.658C100.031 99.3584 100.617 98.7084 101.267 98.7084C101.958 98.7167 102.583 99.0167 103.025 99.4833C103.547 100.006 103.547 100.917 103.025 102.217L100.292 108.467C99.6834 109.833 99.2667 111.417 99.125 113.075V113.133C99.125 114.178 100.036 114.308 101.858 113.525C102.908 113.117 103.808 112.592 104.608 111.942L104.592 111.958C104.853 110.914 106.936 105.311 110.842 95.15L114.75 85.375C115.108 84.2333 116.158 83.4167 117.4 83.4167H117.492C117.95 83.5 118.342 83.7084 118.658 84.0084C119.181 84.3972 119.311 85.1139 119.05 86.1583L111.992 103.042C110.169 107.731 109.058 110.719 108.658 112.008C108.258 113.297 108.336 113.964 108.892 114.008C110.714 114.008 113.711 111.786 117.883 107.342L118.275 106.95L119.45 104.217C119.725 102.867 120.267 101.675 121.025 100.65L121.008 100.675C121.531 100.153 121.922 99.8917 122.183 99.8917C123.228 99.8917 123.75 100.336 123.75 101.225V101.283C123.75 102.167 123.608 103.025 123.342 103.817L123.358 103.758L125.308 101.808C126.858 100 129.142 98.8583 131.692 98.8583C131.85 98.8583 132.017 98.8667 132.175 98.875H132.15C133.8 98.9917 135.092 100.358 135.092 102.025C135.092 102.092 135.092 102.15 135.083 102.217C134.217 105.767 132.433 108.808 130.008 111.2L129.225 111.592C128.742 112.267 128.342 113.042 128.067 113.875L128.05 113.933C128.05 114.194 128.311 114.325 128.833 114.325C129.908 114.042 130.833 113.492 131.567 112.758L138.233 106.9L144.092 53.7417C136.592 56.4667 127.933 58.0417 118.908 58.0417C118.692 58.0417 118.475 58.0417 118.25 58.0417H118.283C112.675 58.4167 106.125 58.625 99.5167 58.625C92.9084 58.625 86.3667 58.4084 79.8667 57.9917L80.75 58.0334C80.5667 58.0334 80.35 58.0334 80.125 58.0334C71.1 58.0334 62.4417 56.4584 54.4167 53.5667L54.9417 53.7334L60.025 102.658ZM144.85 50.275H144.458C144.458 49.2306 142.047 48.1889 137.225 47.15C131.75 46.0167 125.242 45.1834 118.608 44.8167L118.258 44.8L122.167 28.8L144.45 4.95002C145.233 4.4278 144.583 3.25558 142.5 1.43336C141.892 0.775022 141.092 0.300022 140.183 0.108355L140.15 0.100022C139.367 -0.0277561 138.844 0.0361328 138.583 0.291688L114.758 25.2334L109.675 44.3834L99.5167 43.9834C98.8 43.975 97.9584 43.9667 97.1084 43.9667C86.65 43.9667 76.3667 44.6834 66.2917 46.0667L67.4584 45.9334C58.6028 47.2334 54.175 48.6667 54.175 50.2334C54.175 52.8389 61.9917 54.6639 77.625 55.7084C84.175 56.2084 91.8167 56.4917 99.5167 56.4917C107.217 56.4917 114.858 56.2084 122.417 55.65L121.408 55.7084C137.042 54.675 144.858 52.8528 144.858 50.2417L144.85 50.275ZM117.517 52.225C117.517 52.4861 116.994 52.8139 115.95 53.2084C114.917 53.5834 113.717 53.8 112.467 53.8C112.383 53.8 112.3 53.8 112.225 53.8C112.158 53.8 112.083 53.8 112 53.8C110.75 53.8 109.558 53.5834 108.442 53.1917L108.517 53.2167C107.472 52.8278 106.95 52.5 106.95 52.2334C106.95 51.9667 107.342 51.7056 108.125 51.45L107.733 51.8417C107.733 52.3639 109.167 52.625 112.033 52.625C114.9 52.625 116.333 52.3639 116.333 51.8417L116.725 51.45C117.231 51.6945 117.483 51.9445 117.483 52.2L117.517 52.225Z"/></g><defs><clipPath id="fclip0_39_33"><rect width="200" height="200"/></clipPath></defs></symbol><symbol viewBox="0 0 200 200" id="html" xmlns="http://www.w3.org/2000/svg"><path d="M42.4488 0.195679H51.4457V9.08474H59.6757V0.195679H68.6734V27.1133H59.6765V18.0992H51.4464V27.1133H42.4496V0.195679H42.4488ZM80.5042 9.12224H72.5843V0.195679H97.4257V9.12224H89.5019V27.1133H80.505V9.12224H80.5042ZM101.368 0.195679H110.751L116.521 9.65388L122.286 0.195679H131.67V27.1133H122.71V13.7719L116.52 23.3422H116.366L110.172 13.7719V27.1133H101.368V0.195679ZM136.148 0.195679H145.148V18.2164H157.8V27.1133H136.148V0.195679ZM29.2917 39.4242L42.1613 183.773L99.9128 199.804L157.825 183.75L170.708 39.4238L29.2917 39.4242ZM143.863 73.6797L143.057 82.6551L142.703 86.6347H142.645H100H99.9382H74.9554L76.5734 104.762H99.9382H100H136.32H141.091L140.659 109.517L136.499 156.127L136.233 159.116L100 169.158V169.161L99.9187 169.184L63.6535 159.116L61.1726 131.319H69.364H78.9449L80.2054 145.439L99.9218 150.764L99.9382 150.759V150.757L119.685 145.429L121.738 122.468H100H99.9382H60.382L56.0308 73.6797L55.607 68.9308H99.9382H100H144.287L143.863 73.6797Z"/></symbol><symbol viewBox="0 0 200 200" id="jquery" xmlns="http://www.w3.org/2000/svg"><path fill-rule="evenodd" clip-rule="evenodd" d="M191.296 80.7211L199.663 80.7672C199.663 80.7672 184.107 101.847 182.837 103.565C182.424 104.121 181.798 104.721 181.48 105.465C180.676 107.334 179.851 111.436 179.851 111.436L172.195 111.474C172.195 111.474 173.387 107.199 173.337 104.922C173.294 102.933 172.279 100.946 171.709 98.9511C171.133 96.9316 170.352 92.9801 170.352 92.9801H178.223L179.308 97.3226L191.296 80.7211Z"/><path fill-rule="evenodd" clip-rule="evenodd" d="M175.452 85.1668C176.996 86.0977 177.944 91.2328 177.944 91.2328C177.944 91.2328 169.864 91.3519 165.467 91.3519H161.668L157.054 111.436H149.997C149.997 111.436 154.389 89.6098 155.425 85.6527C155.761 84.3715 157.727 84.5914 161.046 84.5914H166.346C169.769 84.5914 173.77 84.1543 175.452 85.1668ZM142.602 94.948C142.602 94.948 142.821 93.659 141.855 92.166C141.03 90.8934 140.268 90.5973 138.096 90.5293C131.966 90.3367 132.085 94.8801 132.085 94.8801L142.602 94.948ZM149.251 89.7449C150.149 92.9859 148.437 100.601 148.437 100.601C148.437 100.601 139.494 100.452 134.595 100.601C133.072 100.648 131.249 100.436 130.796 101.144C130.158 102.137 131.029 103.666 131.767 104.311C132.617 105.055 134.272 105.139 134.867 105.215C138.843 105.72 147.164 105.345 147.164 105.345L145.722 111.728C145.722 111.728 133.963 112.318 128.082 110.914C126.92 110.637 125.832 110.079 125.096 109.286C124.895 109.069 124.721 108.773 124.531 108.518C124.38 108.314 123.938 107.644 123.739 107.114C122.396 103.535 123.896 96.6769 125.368 93.0019C125.538 92.5762 125.753 92.0359 125.979 91.5769C126.261 91.0047 126.499 90.3586 126.725 90.0164C126.876 89.7805 127.064 89.6285 127.221 89.4059C127.403 89.1426 127.614 88.8875 127.81 88.6598C128.353 88.0301 128.969 87.5848 129.71 87.0316C132.161 85.1965 136.595 83.7719 141.923 84.3172C143.929 84.5234 146.958 85.2398 148.437 87.3027C148.833 87.8535 149.029 88.9469 149.251 89.7449ZM116.886 84.5664L123.729 84.5262C123.729 84.5262 119.915 102.615 117.972 111.436H110.101C104.6 111.436 99.7012 112.117 97.6168 108.179C95.5949 104.355 97.5246 98.0664 98.4309 93.7941C99.0715 90.7707 100.421 84.591 100.421 84.591L107.51 84.5262C107.51 84.5262 105.507 94.1473 104.673 98.9512C104.375 100.672 103.759 102.292 104.402 103.564C105.013 104.775 105.868 104.862 108.473 104.922C109.298 104.941 112.001 104.922 112.001 104.922L116.886 84.5664ZM84.8609 97.5937C85.5773 95.0484 86.6223 92.2883 86.4895 89.9945C86.3457 87.5414 84.2887 85.3078 82.9613 84.8383C78.9637 83.4269 75.2211 85.4 73.7336 87.0094C71.8094 89.0937 71.1578 91.5285 70.4766 94.8805C69.9695 97.3687 69.5539 99.9957 70.4766 101.936C72.1102 105.367 77.2047 104.618 82.6898 104.651C83.5039 102.469 84.177 100.018 84.8609 97.5937ZM94.3602 87.5523C95.1414 93.2352 92.143 99.5078 90.0773 104.962C92.1836 105.153 94.0293 104.933 94.1621 105.09C94.3004 105.294 92.7504 111.601 92.2102 111.618C90.5387 111.661 84.9996 111.707 82.6898 111.707C75.1527 111.707 68.102 112.198 64.5063 108.45C63.0461 106.928 62.0363 104.316 61.7918 102.479C61.3848 99.4125 61.8949 96.0359 62.6063 93.2519C63.2496 90.7383 64.0742 88.3664 65.3203 86.1949C68.4875 80.6668 73.9969 76.5633 83.2324 77.5105C85.0238 77.6949 87.5965 78.4793 89.2035 79.4102C89.3145 79.4754 89.7031 79.7848 89.7922 79.8391C91.9637 81.2207 93.9422 84.518 94.3602 87.5523ZM61.0129 84.5992C60.557 86.6754 60.1012 89.0289 59.6207 91.0805H52.0215C52.6102 88.8062 53.0609 86.5453 53.65 84.5668C56.0816 84.5668 58.3426 84.5992 61.0133 84.5992M51.75 92.9805H59.0781C58.1199 98.2836 56.2227 106.838 54.7355 112.793C53.8047 116.519 53.1832 119.238 50.6645 121.206C50.4391 121.382 50.309 121.298 50.1215 121.477C49.6574 121.92 47.5105 122.433 46.3223 122.563C44.3898 122.772 42.2051 122.59 39.8301 122.541C40.4516 120.27 41.1547 117.542 41.7086 115.506C47.4977 116.207 47.6441 110.735 48.7648 105.465C49.4133 102.42 51.3785 94.2016 51.75 92.9805Z"/><path fill-rule="evenodd" clip-rule="evenodd" d="M34.6515 106.822L34.4945 107.229C31.8187 112.44 27.0769 115.637 20.3136 115.778C17.1519 115.843 14.1394 115.032 12.1714 114.15C7.92457 112.241 4.3523 108.703 2.40152 104.922C-0.396918 99.5019 -0.901606 91.9625 4.91714 86.3312C5.00699 86.3312 4.21128 87.5523 4.30113 87.5523L4.14097 88.0734C-0.0519965 101.201 12.8664 112.451 25.4242 111.164C28.4421 110.855 32.2906 109.202 34.6515 106.822Z"/><path fill-rule="evenodd" clip-rule="evenodd" d="M27.0523 101.394C30.2116 101.415 33.5116 99.9387 35.4659 97.8657C33.7562 102.206 28.8058 104.995 22.1675 104.108C16.6089 103.364 11.314 97.7707 10.7687 92.1661C10.3698 88.0871 11.7913 85.6528 14.1339 82.6996C13.3198 84.2442 13.0155 85.4352 12.9398 86.195C12.0499 95.0184 19.9882 101.347 27.0523 101.394Z"/><path fill-rule="evenodd" clip-rule="evenodd" d="M35.1485 90.4344C34.6575 91.561 31.8297 93.6883 30.5809 93.9543C25.636 95.0078 22.4692 92.6629 20.8102 89.9945C20.5637 89.5961 20.1079 88.5078 20.0262 88.2309C19.3829 86.0434 19.6786 82.7348 21.5977 81.0223C21.0196 82.6508 20.9352 84.5422 21.2395 85.7719C21.4239 86.5152 21.9856 87.8133 22.5477 88.6297C23.5704 90.1168 24.2192 90.4781 25.5329 91.268C26.1246 91.6234 26.7594 91.9086 27.0336 91.9867C28.2793 92.3535 30.909 93.3195 35.1485 90.4344Z"/></symbol><symbol viewBox="0 0 200 200" id="js" xmlns="http://www.w3.org/2000/svg"><g clip-path="url(#iclip0_39_20)"><path fill-rule="evenodd" clip-rule="evenodd" d="M153.28 184.321C135.83 184.321 124.55 176.002 119.05 165.122L134.35 156.26C138.38 162.84 143.61 167.671 152.88 167.671C160.66 167.671 165.63 163.778 165.63 158.408C165.63 150.328 154.85 147.171 147.24 143.911C133.68 138.141 124.68 130.891 124.68 115.581C124.68 101.491 135.42 90.752 152.21 90.752C164.15 90.752 172.75 94.9112 178.92 105.781L164.29 115.181C161.07 109.411 157.58 107.129 152.21 107.129C146.7 107.129 143.21 110.621 143.21 115.181C143.21 120.821 146.7 123.102 154.76 126.592C171.65 133.832 184.43 139.52 184.43 158.14C184.43 175.06 171.14 184.321 153.28 184.321ZM110 155.991C110 175.461 98.0099 185.752 81.3599 185.752C66.3199 185.752 57.3099 180 52.8799 170H52.7301H52.6599H52.6199L67.9099 159.312C70.8599 164.542 73.52 168.252 79.96 168.252C86.14 168.252 90 165.122 90 155.732V90H110V155.991ZM0 200H200V0H0V200Z"/></g><defs><clipPath id="iclip0_39_20"><rect width="200" height="200"/></clipPath></defs></symbol><symbol viewBox="0 0 18 13" id="list-item" xmlns="http://www.w3.org/2000/svg"><linearGradient id="jpaint0_linear_405_3699" gradientUnits="userSpaceOnUse" x1="9" x2="9" y1=".25" y2="12.064"><stop offset="0" stop-color="#f97794"/><stop offset="1" stop-color="#9708cc"/></linearGradient><path d="m17.5762 1.48016c.2652-.31821.2222-.791134-.096-1.056307-.3183-.265173-.7912-.22218-1.0563.096028l-5.3907 6.468809c-1.08286 1.29941-1.84459 2.21067-2.50529 2.80728-.64529.58273-1.09063.76793-1.52789.76793s-.8826-.1852-1.52789-.76793c-.6607-.59662-1.42244-1.50788-2.50527-2.80728l-1.39068-1.66881c-.26517-.31821-.738092-.3612-1.056299-.09603-.318208.26518-.361201.7381-.096028 1.05631l1.429267 1.71512c1.03527 1.24236 1.86436 2.23732 2.61372 2.91392.77405.699 1.56532 1.1547 2.53318 1.1547s1.75912-.4557 2.53318-1.1547c.7494-.6766 1.5784-1.67154 2.6137-2.91388z"/></symbol><symbol viewBox="0 0 200 200" id="scss" xmlns="http://www.w3.org/2000/svg"><g clip-path="url(#kclip0_39_18)"><path d="M100 0C155.244 0 200 44.7563 200 100C200 155.244 155.244 200 100 200C44.7563 200 0 155.244 0 100C0 44.7563 44.7563 0 100 0ZM80.1063 133.3C81.575 138.706 81.4125 143.719 79.9125 148.244L79.3875 149.744C79.1937 150.262 78.9375 150.75 78.7375 151.213C77.5687 153.656 76.0063 155.894 74.1188 157.981C68.2875 164.3 60.1875 166.706 56.7 164.688C52.925 162.506 54.8062 153.556 61.55 146.419C68.8062 138.769 79.225 133.85 79.225 133.85V133.825L80.1063 133.3ZM162.725 42.8062C158.2 25.0312 128.744 19.2063 100.875 29.1C84.275 34.9938 66.3438 44.2437 53.4187 56.3187C38.05 70.6687 35.6125 83.1688 36.625 88.375C40.2 106.8 65.4312 118.881 75.8187 127.8V127.869C72.75 129.362 50.3625 140.594 45.1187 152.25C39.4875 164.481 46 173.244 50.225 174.35C63.35 177.994 76.8562 171.35 84.1187 160.606C91.1187 150.1 90.4937 136.625 87.4687 129.981C91.6 128.875 96.4875 128.35 102.737 129.1C120.256 131.119 123.737 142.125 122.987 146.619C122.237 151.112 118.619 153.744 117.356 154.494C116.125 155.244 115.731 155.469 115.856 155.994C115.988 156.744 116.606 156.744 117.613 156.613C118.981 156.388 126.731 152.869 127.119 144.369C127.475 133.594 117.219 121.619 98.9937 121.844C91.475 122.013 86.7187 122.625 83.3687 123.994C83.1125 123.638 82.8437 123.375 82.4875 123.112C71.2312 111.006 50.3625 102.512 51.2375 86.3625C51.5062 80.5062 53.6187 65.0125 91.2437 46.2625C122.1 30.8625 146.744 35.1312 150.975 44.5062C157.1 57.8812 137.856 82.7562 105.731 86.3625C93.4875 87.7312 87.1063 83.0125 85.4813 81.2563C83.725 79.3625 83.5 79.2375 82.8375 79.6313C81.8625 80.1125 82.4812 81.75 82.8375 82.7563C83.8437 85.2563 87.7188 89.625 94.4938 91.8625C100.35 93.7562 114.744 94.8625 131.994 88.1187C151.362 80.6375 166.469 59.7688 162.1 42.25L162.725 42.8062Z"/></g><defs><clipPath id="kclip0_39_18"><rect width="200" height="200"/></clipPath></defs></symbol><symbol viewBox="0 0 40 40" id="telegram" xmlns="http://www.w3.org/2000/svg"><g clip-path="url(#lclip0_19_55)"><path d="M40 20C40 25.3043 37.8929 30.3914 34.1421 34.1421C30.3914 37.8929 25.3043 40 20 40C14.6957 40 9.60859 37.8929 5.85786 34.1421C2.10714 30.3914 0 25.3043 0 20C0 14.6957 2.10714 9.60859 5.85786 5.85786C9.60859 2.10714 14.6957 0 20 0C25.3043 0 30.3914 2.10714 34.1421 5.85786C37.8929 9.60859 40 14.6957 40 20ZM20.7175 14.765C18.7708 15.575 14.8825 17.25 9.0525 19.79C8.1075 20.165 7.61167 20.5333 7.565 20.895C7.49 21.5025 8.2525 21.7425 9.29 22.07L9.7275 22.2075C10.7475 22.54 12.1225 22.9275 12.835 22.9425C13.485 22.9592 14.2083 22.6925 15.005 22.1425C20.4533 18.4658 23.265 16.6075 23.44 16.5675C23.565 16.5375 23.74 16.5025 23.855 16.6075C23.97 16.7125 23.96 16.9075 23.9475 16.96C23.8725 17.2825 20.88 20.0625 19.3325 21.5025C18.85 21.9525 18.5075 22.27 18.4375 22.3425C18.2834 22.5001 18.1267 22.6551 17.9675 22.8075C17.0175 23.7225 16.3075 24.4075 18.005 25.5275C18.8225 26.0675 19.4775 26.51 20.13 26.955C20.84 27.44 21.55 27.9225 22.47 28.5275C22.7033 28.6808 22.9283 28.8367 23.145 28.995C23.9725 29.585 24.72 30.115 25.6375 30.03C26.1725 29.98 26.725 29.48 27.005 27.98C27.6675 24.4375 28.97 16.765 29.27 13.6025C29.2889 13.3396 29.2779 13.0754 29.2375 12.815C29.2133 12.605 29.1116 12.4116 28.9525 12.2725C28.7247 12.1161 28.4538 12.0348 28.1775 12.04C27.4275 12.0525 26.27 12.455 20.7175 14.765Z"/></g><defs><clipPath id="lclip0_19_55"><rect width="40" height="40"/></clipPath></defs></symbol><symbol viewBox="0 0 40 40" id="vk" xmlns="http://www.w3.org/2000/svg"><g clip-path="url(#mclip0_19_61)"><path fill-rule="evenodd" clip-rule="evenodd" d="M8.88889 0C6.53141 0 4.27049 0.936505 2.60349 2.60349C0.936505 4.27049 0 6.53141 0 8.88889V31.1111C0 33.4686 0.936505 35.7295 2.60349 37.3965C4.27049 39.0635 6.53141 40 8.88889 40H31.1111C33.4686 40 35.7295 39.0635 37.3965 37.3965C39.0635 35.7295 40 33.4686 40 31.1111V8.88889C40 6.53141 39.0635 4.27049 37.3965 2.60349C35.7295 0.936505 33.4686 0 31.1111 0H8.88889ZM31.8489 15.6778C32.176 15.1874 32.2949 14.5872 32.1795 14.0092C32.064 13.4312 31.7237 12.9227 31.2333 12.5956C30.743 12.2685 30.1428 12.1495 29.5647 12.265C28.9867 12.3804 28.4782 12.7208 28.1511 13.2111C27.3644 14.2556 26.54 15.2556 25.5756 16.1444C24.4578 17.1756 23.3267 17.9489 22.2244 18.4067L22.2067 14.1844C22.143 13.6439 21.8831 13.1455 21.4764 12.7838C21.0696 12.4221 20.5443 12.2223 20 12.2222C18.7956 12.2911 17.7778 13.18 17.7778 14.4444V24.1622C13.4489 22.9622 11.1111 18.7622 11.1111 14.4444C11.1111 13.8551 10.877 13.2898 10.4602 12.8731C10.0435 12.4563 9.47826 12.2222 8.88889 12.2222C8.29952 12.2222 7.73429 12.4563 7.31754 12.8731C6.90079 13.2898 6.66667 13.8551 6.66667 14.4444C6.66667 22.5156 12.2444 28.8889 20 28.8889C20.5894 28.8889 21.1546 28.6548 21.5713 28.238C21.9881 27.8213 22.2222 27.256 22.2222 26.6667V23.1933C25.1822 23.4289 28.0533 25.52 29.1244 27.66C29.2493 27.9302 29.4271 28.1725 29.6473 28.3727C29.8675 28.5728 30.1258 28.7267 30.4066 28.8252C30.6874 28.9236 30.9852 28.9647 31.2822 28.9459C31.5792 28.9271 31.8694 28.8488 32.1356 28.7157C32.4018 28.5826 32.6386 28.3974 32.8318 28.1711C33.0251 27.9448 33.1709 27.6819 33.2606 27.3982C33.3504 27.1144 33.3822 26.8155 33.3542 26.5192C33.3262 26.2229 33.239 25.9353 33.0978 25.6733C32.0356 23.5467 30.0533 21.5578 27.6133 20.26C27.9422 19.9911 28.2689 19.7067 28.5911 19.4111C29.8154 18.2946 30.9084 17.042 31.8489 15.6778Z"/></g><defs><clipPath id="mclip0_19_61"><rect width="40" height="40"/></clipPath></defs></symbol></svg>