<?xml version="1.0" encoding="utf-8"?><svg viewBox="0 0 685 654" xmlns="http://www.w3.org/2000/svg" xmlns:xlink="http://www.w3.org/1999/xlink"><style>:root>svg{display:none}:root>svg:target{display:block}</style><svg fill="none" viewBox="0 0 685 654" id="circle" xmlns="http://www.w3.org/2000/svg"><path d="M667.5 326.906c0 170.127-144.669 309.405-324.848 309.405S17.804 497.033 17.804 326.906C17.804 156.778 162.473 17.5 342.652 17.5S667.5 156.778 667.5 326.906Z" stroke="#E40037" stroke-width="35"/></svg><svg fill="none" viewBox="0 0 685 654" id="circle-blur" xmlns="http://www.w3.org/2000/svg"><path d="M667.5 326.906c0 170.127-144.669 309.405-324.848 309.405S17.804 497.033 17.804 326.906C17.804 156.778 162.473 17.5 342.652 17.5S667.5 156.778 667.5 326.906Z" stroke="#E40037" stroke-width="35"/></svg><svg fill="none" viewBox="0 0 200 200" id="css" xmlns="http://www.w3.org/2000/svg"><path d="M79.713 18.235v8.6H57.72V.196h21.993v9.426H67.145v8.614h12.568Zm22.608-8.614h8.786V.196H89.111V9.62c2.943 2.943 4.477 4.352 8.733 8.607-2.488 0-8.733.009-8.733.009v8.599h21.996v-8.6l-8.786-8.615Zm31.174 0h8.785V.196h-21.995V9.62c2.942 2.943 4.477 4.352 8.733 8.607-2.487 0-8.733.009-8.733.009v8.599h21.995v-8.6l-8.785-8.615Zm37.753 29.876-13.361 144.721L100 199.804l-57.89-15.586L28.753 39.497h142.496Zm-26.921 29.426H54.783l2.16 17.477H102.363l-2.416 1.005-41.432 17.257 1.374 17.082 40.058.13 21.47.068-1.375 22.778-20.095 5.658v-.018l-.165.045-19.407-4.899-1.178-14.139H61.068l2.356 27.296 36.523 10.8v-.02l.066.02 36.328-10.604 4.714-54.197H99.846l.101-.044L142.56 86.4l1.768-17.477Z" fill="#000"/></svg><svg fill="none" viewBox="0 0 200 200" id="git" xmlns="http://www.w3.org/2000/svg"><path d="M31.25 31.25v137.5h137.5V31.25H31.25Zm12.5 12.5h112.5v112.5H43.75V43.75Zm61.694 21.008c-3.95 0-6.262 2.111-6.262 6.055 0 4.019 2.319 6.262 6.262 6.262 4.013 0 6.324-2.25 6.324-6.262 0-3.95-2.311-6.055-6.324-6.055Zm19.458 6.592c-.75 7.55-3.196 10.61-9.253 11.292v6.2c5.582 0 5.372-.215 5.372.672v18.237c0 7.825 3.137 10.999 11.437 10.999 3.944 0 8.298-1.125 11.292-2.625l-1.904-6.14c-11.157 4.219-10.596-3.397-10.596-4.553V88.831h10.596v-6.934H131.25V71.35h-6.348ZM73.303 82.593c-7.234.031-15.967 2.92-15.967 13.537 0 5.1 2.594 8.707 5.994 10.413-4.287 3.937-6.335 5.774-6.335 8.362 0 1.906.82 3.595 3.064 4.614-2.382 2.25-3.809 3.961-3.809 7.092 0 5.444 4.827 8.643 17.346 8.643 12.113 0 19.129-4.495 19.129-12.451 0-10.069-7.69-9.659-25.928-10.816l2.307-3.686c4.625 1.294 20.276 1.708 20.276-11.56 0-3.2-1.294-5.445-2.588-7.007l6.397-.476v-5.933H79.65c-1.702-.442-3.936-.743-6.348-.732Zm23.914.06-.757 5.653c4.287 1.493 4.626 1.278 4.626 2.71v20.483c0 1.5-.07 1.231-4.626 1.843v5.408h19.8v-5.408l-3.54-.476c-1.019-.137-1.087-.279-1.087-1.367V82.654H97.217Zm-23.34 6.861c8.5 0 8.705 12.122-.208 12.122-8.98 0-8.573-12.122.208-12.122Zm-7.63 31.848c13.27.957 16.126.616 16.126 3.272 0 5.512-17.895 5.509-17.895.403 0-1.363.882-2.518 1.77-3.675Z" fill="#000"/></svg><svg fill="none" viewBox="0 0 40 40" id="github" xmlns="http://www.w3.org/2000/svg"><g clip-path="url(#ea)" fill="#fff"><path fill-rule="evenodd" clip-rule="evenodd" d="M20 .833A20.072 20.072 0 0 0 7.045 5.578a19.862 19.862 0 0 0-6.78 11.959c-.76 4.66.172 9.437 2.628 13.477a19.983 19.983 0 0 0 10.782 8.574c.993.185 1.368-.431 1.368-.955 0-.523-.02-2.041-.027-3.701-5.564 1.202-6.74-2.348-6.74-2.348-.907-2.305-2.218-2.91-2.218-2.91-1.815-1.232.136-1.21.136-1.21 2.01.142 3.066 2.052 3.066 2.052 1.782 3.04 4.68 2.16 5.82 1.647.178-1.288.698-2.164 1.27-2.661-4.444-.5-9.113-2.206-9.113-9.826a7.678 7.678 0 0 1 2.06-5.338c-.206-.5-.891-2.523.195-5.269 0 0 1.68-.533 5.501 2.038a19.087 19.087 0 0 1 10.015 0c3.818-2.571 5.494-2.038 5.494-2.038 1.09 2.74.404 4.762.199 5.269a7.661 7.661 0 0 1 2.063 5.344c0 7.637-4.68 9.32-9.13 9.81.715.62 1.354 1.828 1.354 3.685 0 2.66-.023 4.801-.023 5.456 0 .53.36 1.15 1.374.955a19.983 19.983 0 0 0 10.783-8.576 19.795 19.795 0 0 0 2.626-13.479 19.862 19.862 0 0 0-6.782-11.959A20.072 20.072 0 0 0 20.007.834H20Z"/><path d="M13.38 33.292c0 .161-.186.3-.424.303-.239.003-.434-.128-.434-.29 0-.161.185-.3.424-.303.238-.003.434.125.434.29ZM14.903 33.039c.03.16-.136.329-.374.368-.239.04-.447-.056-.477-.214-.03-.158.142-.329.374-.372.232-.043.447.056.477.218ZM11.744 33.18c-.05.155-.275.224-.5.158-.226-.066-.375-.25-.332-.408.043-.158.272-.23.5-.158.229.072.375.247.332.408ZM10.243 32.535c-.109.122-.33.089-.513-.076-.182-.165-.225-.389-.116-.507.11-.119.331-.086.52.076.189.161.225.388.11.507ZM9.174 31.428c-.123.086-.331 0-.447-.17a.33.33 0 0 1 0-.475c.122-.082.33 0 .447.168.116.168.119.392 0 .477ZM8.385 30.286a.333.333 0 0 1-.41-.093c-.13-.138-.156-.329-.057-.415.1-.085.279-.046.408.093.129.138.159.329.06.415ZM7.574 29.387c-.043.098-.202.128-.331.059-.13-.07-.225-.198-.179-.3.046-.102.202-.128.331-.059.13.07.229.2.18.3Z"/></g><defs><clipPath id="ea"><path fill="#fff" d="M0 0h40v40H0z"/></clipPath></defs></svg><svg fill="none" viewBox="0 0 200 200" id="gulp" xmlns="http://www.w3.org/2000/svg"><g clip-path="url(#fa)"><path d="M131.567 152.658c-8.559 3.267-18.467 5.159-28.809 5.159-1.208 0-2.408-.025-3.608-.075l.167.008a86.095 86.095 0 0 1-33.267-5.275l.6.192 5.858 9.775 2.35 31.275c0 1.822 2.411 3.319 7.234 4.491 4.891 1.142 10.516 1.8 16.291 1.8.392 0 .792 0 1.184-.008h-.059c.367.008.809.008 1.242.008 5.725 0 11.3-.641 16.65-1.866l-.5.1c4.822-1.173 7.233-2.67 7.233-4.492l1.95-31.275 5.484-9.817Zm-71.542-50c1.425-4.758 3.425-8.916 5.967-12.666l-.1.158c2.441-3.792 5.741-6.842 9.633-8.925l.142-.067a8.096 8.096 0 0 1 3.325-.7c1.508 0 2.925.409 4.141 1.109l-.041-.025a7.833 7.833 0 0 1 2.716 2.325l.017.025c.583.633 1 1.433 1.167 2.316l.008.034c.108.308.167.666.167 1.041 0 .55-.134 1.067-.375 1.517l.008-.017a1.77 1.77 0 0 1-1.567.984c-.655 0-1.502-.911-2.541-2.734-1.567-2.866-3.79-3.258-6.667-1.175a22.546 22.546 0 0 0-6.608 7.875l-.059.125c-1.791 3.125-3.375 6.75-4.558 10.559l-.108.391c-.559 1.35-.875 2.925-.875 4.575 0 1.225.175 2.4.508 3.517l-.025-.083a2.294 2.294 0 0 0 2 1.183 10.19 10.19 0 0 0 6.042-3.692l.016-.025c1.992-1.883 3.734-4 5.2-6.316l.084-.134 1.95-5.858c.522-1.3 1.305-1.95 2.35-1.95 1.044 0 1.566.717 1.566 2.15a17.6 17.6 0 0 1-1.616 6.167l.05-.109c-.809 1.9-1.617 4.242-2.259 6.65l-.091.392-3.15 10.133a10.608 10.608 0 0 1-1.009 2.192l.025-.05a1.652 1.652 0 0 1-1.325.983h-.075c-.458 0-.866-.233-1.1-.583a3.932 3.932 0 0 1-.291-1.492c0-.308.033-.608.1-.891l-.009.025c.884-3.95 1.892-7.3 3.109-10.534l-.175.534-2.734 2.733a13.199 13.199 0 0 1-8.183 4.333l-.067.009c-.083.008-.175.008-.275.008a5.545 5.545 0 0 1-2.875-.8l.025.017 3.125 30.875c.261 1.3 3.648 2.733 10.159 4.3 7.083 1.741 15.216 2.733 23.583 2.733h.683-.033.65c8.367 0 16.5-1 24.292-2.875l-.7.142c6.255-1.567 9.641-3 10.158-4.3l4.3-36.742-.783.392a25.053 25.053 0 0 1-6.542 5.216l-.125.067a8.195 8.195 0 0 1-3.342.692 9.33 9.33 0 0 1-1.375-.109l.05.009c-1.583-.261-2.375-1.045-2.375-2.35.817-2.792 2.309-5.167 4.292-7.025l.008-.009 1.175-1.95c1.3-1.3 1.95-2.277 1.95-2.933 0-.656-.522-.917-1.566-.783a5.908 5.908 0 0 0-3.125 1.566 21.174 21.174 0 0 0-3.284 3.834l-.05.075c-1.2 1.741-2.308 3.733-3.241 5.825l-.092.233-1.567 3.125-3.833 10.933a5.17 5.17 0 0 1-1.925 1.75l-.025.017a1.751 1.751 0 0 1-1.958 0c-.45-.3-.734-.8-.75-1.367l.391-1.175c1.017-2.95 2.075-5.4 3.284-7.766l-.159.341 2.734-5.858c.261-1.044.391-1.436.391-1.175a18.534 18.534 0 0 1-5.366 4.058l-.109.05a6.309 6.309 0 0 1-2.858.675 6.78 6.78 0 0 1-1.092-.091l.042.008a2.522 2.522 0 0 1-1.95-1.933v-.017l-.392-.783a9.068 9.068 0 0 1-6.441 2.733c-1.695-.261-2.14-2.214-1.334-5.858-1.45 3.416-4.741 5.783-8.591 5.858a3.344 3.344 0 0 1-3.517-1.933l-.008-.025a16.449 16.449 0 0 1 1.917-9.084l-.042.092v-.392a629.653 629.653 0 0 1 2.733-6.25c.783-1.566 1.825-2.088 3.125-1.566h.392c.783.522.914 1.564.391 3.125l-1.175 1.566c-.916 1.709-1.833 3.767-2.616 5.9l-.117.359c-.522 2.344-.328 3.516.583 3.516a6.573 6.573 0 0 0 2.967-.8l-.033.017a13.178 13.178 0 0 0 4.075-4.808l.033-.075a20.636 20.636 0 0 0 2.117-5.134l.033-.15.783-2c.523-1.3 1.109-1.95 1.759-1.95a2.464 2.464 0 0 1 1.758.775c.522.523.522 1.434 0 2.734l-2.733 6.25a14.454 14.454 0 0 0-1.167 4.608v.058c0 1.045.911 1.175 2.733.392 1.05-.408 1.95-.933 2.75-1.583l-.016.016c.261-1.044 2.344-6.647 6.25-16.808l3.908-9.775a2.778 2.778 0 0 1 2.65-1.958h.092c.458.083.85.291 1.166.591.523.39.653 1.106.392 2.15l-7.058 16.884c-1.823 4.689-2.934 7.677-3.334 8.966-.4 1.289-.322 1.956.234 2 1.822 0 4.819-2.222 8.991-6.666l.392-.392 1.175-2.733a8.947 8.947 0 0 1 1.575-3.567l-.017.025c.523-.522.914-.783 1.175-.783 1.045 0 1.567.444 1.567 1.333v.058a7.97 7.97 0 0 1-.408 2.534l.016-.059 1.95-1.95a8.384 8.384 0 0 1 6.384-2.95c.158 0 .325.009.483.017h-.025a3.16 3.16 0 0 1 2.942 3.15c0 .067 0 .125-.009.192a18.77 18.77 0 0 1-5.075 8.983l-.783.392a8.547 8.547 0 0 0-1.158 2.283l-.017.058c0 .261.261.392.783.392 1.075-.283 2-.833 2.734-1.567l6.666-5.858 5.859-53.158c-7.5 2.725-16.159 4.3-25.184 4.3h-.658.033c-5.608.375-12.158.583-18.766.583-6.609 0-13.15-.217-19.65-.633l.883.041h-.625c-9.025 0-17.683-1.575-25.708-4.466l.525.166 5.083 48.925Zm84.825-52.383h-.392c0-1.044-2.411-2.086-7.233-3.125-5.475-1.133-11.983-1.967-18.617-2.333l-.35-.017 3.909-16L144.45 4.95c.783-.522.133-1.694-1.95-3.517a4.386 4.386 0 0 0-2.317-1.325L140.15.1c-.783-.128-1.306-.064-1.567.192l-23.825 24.941-5.083 19.15-10.158-.4c-.717-.008-1.559-.016-2.409-.016-10.458 0-20.741.716-30.816 2.1l1.166-.134c-8.855 1.3-13.283 2.734-13.283 4.3 0 2.606 7.817 4.43 23.45 5.475 6.55.5 14.192.784 21.892.784 7.7 0 15.341-.284 22.9-.842l-1.009.058c15.634-1.033 23.45-2.855 23.45-5.466l-.008.033Zm-27.333 1.95c0 .261-.523.589-1.567.983a10.312 10.312 0 0 1-3.483.592H112c-1.25 0-2.442-.217-3.558-.608l.075.025c-1.045-.39-1.567-.717-1.567-.984 0-.266.392-.527 1.175-.783l-.392.392c0 .522 1.434.783 4.3.783 2.867 0 4.3-.261 4.3-.783l.392-.392c.506.244.758.494.758.75l.034.025Z" fill="#000"/></g><defs><clipPath id="fa"><path fill="#fff" d="M0 0h200v200H0z"/></clipPath></defs></svg><svg fill="none" viewBox="0 0 200 200" id="html" xmlns="http://www.w3.org/2000/svg"><path d="M42.449.196h8.997v8.889h8.23V.195h8.997v26.918h-8.997V18.1h-8.23v9.014H42.45V.196h-.001Zm38.055 8.926h-7.92V.196h24.842v8.926h-7.924v17.991h-8.997V9.123ZM101.368.196h9.383l5.77 9.458 5.765-9.458h9.384v26.917h-8.96V13.772l-6.19 9.57h-.154l-6.194-9.57v13.341h-8.804V.196Zm34.78 0h9v18.02H157.8v8.897h-21.652V.196ZM29.292 39.424l12.87 144.349 57.75 16.031 57.913-16.054 12.883-144.326H29.292ZM143.863 73.68l-.806 8.975-.354 3.98H74.955l1.618 18.127h64.518l-.432 4.755-4.16 46.61-.266 2.989L100 169.158v.003l-.081.023-36.265-10.068-2.481-27.797h17.771l1.261 14.12 19.717 5.325.016-.005v-.002l19.747-5.328 2.053-22.961H60.382L56.031 73.68l-.424-4.75h88.68l-.424 4.75Z" fill="#000"/></svg><svg fill="none" viewBox="0 0 200 200" id="jquery" xmlns="http://www.w3.org/2000/svg"><path fill-rule="evenodd" clip-rule="evenodd" d="m191.296 80.721 8.367.046s-15.556 21.08-16.826 22.798c-.413.556-1.039 1.156-1.357 1.9-.804 1.869-1.629 5.971-1.629 5.971l-7.656.038s1.192-4.275 1.142-6.552c-.043-1.989-1.058-3.976-1.628-5.97-.576-2.02-1.357-5.972-1.357-5.972h7.871l1.085 4.343 11.988-16.602Z" fill="#1A1918"/><path fill-rule="evenodd" clip-rule="evenodd" d="M175.452 85.167c1.544.93 2.492 6.066 2.492 6.066s-8.08.119-12.477.119h-3.799l-4.614 20.084h-7.057s4.392-21.826 5.428-25.783c.336-1.282 2.302-1.062 5.621-1.062h5.3c3.423 0 7.424-.437 9.106.576Zm-32.85 9.781s.219-1.289-.747-2.782c-.825-1.273-1.587-1.569-3.759-1.637-6.13-.192-6.011 4.351-6.011 4.351l10.517.068Zm6.649-5.203c.898 3.24-.814 10.856-.814 10.856s-8.943-.149-13.842 0c-1.523.047-3.346-.165-3.799.543-.638.993.233 2.522.971 3.167.85.744 2.505.828 3.1.904 3.976.505 12.297.13 12.297.13l-1.442 6.383s-11.759.59-17.64-.814c-1.162-.277-2.25-.835-2.986-1.628-.201-.217-.375-.513-.565-.768-.151-.204-.593-.874-.792-1.404-1.343-3.579.157-10.437 1.629-14.112.17-.426.385-.966.611-1.425.282-.572.52-1.218.746-1.56.151-.236.339-.388.496-.611.182-.263.393-.519.589-.746.543-.63 1.159-1.075 1.9-1.628 2.451-1.835 6.885-3.26 12.213-2.715 2.006.206 5.035.923 6.514 2.986.396.55.592 1.644.814 2.442Zm-32.365-5.179 6.843-.04s-3.814 18.089-5.757 26.91h-7.871c-5.501 0-10.4.681-12.484-3.257-2.022-3.824-.092-10.113.814-14.385.64-3.023 1.99-9.203 1.99-9.203l7.089-.065s-2.003 9.621-2.837 14.425c-.298 1.721-.914 3.341-.271 4.613.611 1.211 1.466 1.298 4.071 1.358.825.019 3.528 0 3.528 0l4.885-20.356ZM84.861 97.594c.716-2.546 1.761-5.306 1.629-7.6-.144-2.453-2.201-4.686-3.529-5.156-3.997-1.411-7.74.562-9.227 2.171-1.925 2.085-2.576 4.52-3.257 7.871-.508 2.489-.923 5.116 0 7.056 1.633 3.431 6.728 2.682 12.213 2.715.814-2.182 1.487-4.633 2.17-7.057Zm9.5-10.042c.78 5.683-2.218 11.956-4.284 17.41 2.107.191 3.952-.029 4.085.128.138.204-1.412 6.511-1.952 6.528-1.671.043-7.21.089-9.52.089-7.537 0-14.588.491-18.184-3.257-1.46-1.522-2.47-4.134-2.714-5.971-.407-3.067.103-6.443.814-9.227.644-2.514 1.468-4.886 2.714-7.057 3.168-5.528 8.677-9.632 17.912-8.684 1.792.184 4.365.968 5.972 1.9.11.064.5.374.588.428 2.172 1.382 4.15 4.679 4.568 7.713ZM61.012 84.6c-.456 2.076-.912 4.43-1.392 6.481h-7.6c.59-2.274 1.04-4.535 1.629-6.513 2.432 0 4.693.032 7.363.032m-9.263 8.382h7.328c-.958 5.303-2.855 13.857-4.343 19.812-.93 3.726-1.552 6.445-4.07 8.413-.226.176-.356.092-.544.271-.464.443-2.61.956-3.799 1.086-1.932.209-4.117.027-6.492-.022.622-2.271 1.325-4.999 1.879-7.035 5.789.701 5.935-4.771 7.056-10.041.648-3.045 2.614-11.263 2.985-12.484Z" fill="#1A1918"/><path fill-rule="evenodd" clip-rule="evenodd" d="m34.651 106.822-.157.407c-2.675 5.211-7.417 8.408-14.18 8.549-3.162.065-6.175-.746-8.143-1.628-4.246-1.909-7.819-5.447-9.77-9.228-2.798-5.42-3.303-12.96 2.516-18.59.09 0-.706 1.22-.616 1.22l-.16.521c-4.193 13.128 8.725 24.378 21.283 23.091 3.018-.309 6.867-1.962 9.227-4.342Z" fill="#21609B"/><path fill-rule="evenodd" clip-rule="evenodd" d="M27.052 101.394c3.16.021 6.46-1.455 8.414-3.528-1.71 4.34-6.66 7.129-13.299 6.242-5.558-.744-10.853-6.337-11.398-11.942-.4-4.079 1.022-6.513 3.365-9.466-.814 1.544-1.119 2.735-1.194 3.495-.89 8.823 7.048 15.152 14.112 15.199Z" fill="#21609B"/><path fill-rule="evenodd" clip-rule="evenodd" d="M35.148 90.434c-.49 1.127-3.318 3.254-4.567 3.52-4.945 1.054-8.112-1.291-9.77-3.96-.247-.398-.703-1.486-.785-1.763-.643-2.188-.347-5.496 1.572-7.209-.578 1.629-.663 3.52-.358 4.75.184.743.746 2.041 1.308 2.858 1.022 1.487 1.671 1.848 2.985 2.638.592.355 1.226.64 1.5.719 1.246.367 3.876 1.333 8.115-1.553Z" fill="#21609B"/></svg><svg fill="none" viewBox="0 0 200 200" id="js" xmlns="http://www.w3.org/2000/svg"><g clip-path="url(#ia)"><path fill-rule="evenodd" clip-rule="evenodd" d="M153.28 184.321c-17.45 0-28.73-8.319-34.23-19.199l15.3-8.862c4.03 6.58 9.26 11.411 18.53 11.411 7.78 0 12.75-3.893 12.75-9.263 0-8.08-10.78-11.237-18.39-14.497-13.56-5.77-22.56-13.02-22.56-28.33 0-14.09 10.74-24.829 27.53-24.829 11.94 0 20.54 4.16 26.71 15.029l-14.63 9.4c-3.22-5.77-6.71-8.052-12.08-8.052-5.51 0-9 3.492-9 8.052 0 5.64 3.49 7.921 11.55 11.411 16.89 7.24 29.67 12.928 29.67 31.548 0 16.92-13.29 26.181-31.15 26.181ZM110 155.991c0 19.47-11.99 29.761-28.64 29.761-15.04 0-24.05-5.752-28.48-15.752h-.26l15.29-10.688c2.95 5.23 5.61 8.94 12.05 8.94 6.18 0 10.04-3.13 10.04-12.52V90h20v65.991ZM0 200h200V0H0v200Z" fill="#000"/></g><defs><clipPath id="ia"><path fill="#fff" d="M0 0h200v200H0z"/></clipPath></defs></svg><svg fill="none" viewBox="0 0 18 13" id="list-item" xmlns="http://www.w3.org/2000/svg"><linearGradient id="ja" gradientUnits="userSpaceOnUse" x1="9" x2="9" y1=".25" y2="12.064"><stop offset="0" stop-color="#f97794"/><stop offset="1" stop-color="#9708cc"/></linearGradient><path d="M17.576 1.48a.75.75 0 1 0-1.152-.96l-5.39 6.469c-1.084 1.3-1.845 2.21-2.506 2.807-.645.583-1.09.768-1.528.768s-.883-.185-1.528-.768c-.66-.597-1.422-1.508-2.505-2.807l-1.39-1.67a.75.75 0 1 0-1.153.961l1.43 1.715c1.034 1.243 1.863 2.238 2.613 2.914.774.7 1.565 1.155 2.533 1.155s1.76-.456 2.533-1.155c.75-.676 1.579-1.671 2.614-2.914z" fill="url(#ja)"/></svg><svg fill="none" viewBox="0 0 200 200" id="scss" xmlns="http://www.w3.org/2000/svg"><g clip-path="url(#ka)"><path d="M100 0c55.244 0 100 44.756 100 100s-44.756 100-100 100S0 155.244 0 100 44.756 0 100 0ZM80.106 133.3c1.469 5.406 1.306 10.419-.194 14.944l-.525 1.5c-.193.518-.45 1.006-.65 1.469-1.168 2.443-2.73 4.681-4.618 6.768-5.832 6.319-13.931 8.725-17.419 6.707-3.775-2.182-1.894-11.132 4.85-18.269 7.256-7.65 17.675-12.569 17.675-12.569v-.025l.881-.525Zm82.619-90.494c-4.525-17.775-33.981-23.6-61.85-13.706-16.6 5.894-34.531 15.144-47.456 27.219-15.369 14.35-17.806 26.85-16.794 32.056C40.2 106.8 65.431 118.881 75.819 127.8v.069c-3.069 1.493-25.457 12.725-30.7 24.381-5.632 12.231.881 20.994 5.106 22.1 13.125 3.644 26.631-3 33.894-13.744 7-10.506 6.375-23.981 3.35-30.625 4.131-1.106 9.019-1.631 15.268-.881 17.519 2.019 21 13.025 20.25 17.519-.75 4.493-4.368 7.125-5.631 7.875-1.231.75-1.625.975-1.5 1.5.132.75.75.75 1.757.619 1.368-.225 9.118-3.744 9.506-12.244.356-10.775-9.9-22.75-28.125-22.525-7.519.169-12.275.781-15.625 2.15a3.822 3.822 0 0 0-.882-.882c-11.256-12.106-32.124-20.6-31.25-36.75.27-5.856 2.382-21.35 40.007-40.1 30.856-15.4 55.5-11.13 59.731-1.756 6.125 13.375-13.119 38.25-45.244 41.856-12.243 1.37-18.625-3.35-20.25-5.106-1.756-1.894-1.981-2.019-2.643-1.625-.975.481-.357 2.119 0 3.125 1.006 2.5 4.88 6.869 11.656 9.106 5.856 1.894 20.25 3 37.5-3.743 19.368-7.481 34.475-28.35 30.106-45.869l.625.556Z" fill="#000"/></g><defs><clipPath id="ka"><path fill="#fff" d="M0 0h200v200H0z"/></clipPath></defs></svg><svg fill="none" viewBox="0 0 40 40" id="telegram" xmlns="http://www.w3.org/2000/svg"><g clip-path="url(#la)"><path d="M40 20a20 20 0 1 1-40 0 20 20 0 0 1 40 0Zm-19.282-5.235c-1.947.81-5.835 2.485-11.665 5.025-.946.375-1.441.743-1.488 1.105-.075.608.687.848 1.725 1.175l.438.137c1.02.333 2.395.72 3.107.735.65.017 1.373-.25 2.17-.8 5.448-3.676 8.26-5.534 8.435-5.575.125-.03.3-.064.415.04.115.105.105.3.093.353-.076.322-3.068 3.102-4.616 4.543-.482.45-.825.767-.895.84-.154.157-.31.312-.47.465-.95.915-1.66 1.6.038 2.72.818.54 1.473.982 2.125 1.427.71.485 1.42.968 2.34 1.573.233.153.458.309.675.467.828.59 1.575 1.12 2.492 1.035.535-.05 1.088-.55 1.368-2.05.663-3.543 1.965-11.215 2.265-14.378a3.5 3.5 0 0 0-.032-.787.85.85 0 0 0-.285-.542 1.325 1.325 0 0 0-.776-.233c-.75.013-1.907.415-7.46 2.725Z" fill="#fff"/></g><defs><clipPath id="la"><path fill="#fff" d="M0 0h40v40H0z"/></clipPath></defs></svg><svg fill="none" viewBox="0 0 40 40" id="vk" xmlns="http://www.w3.org/2000/svg"><g clip-path="url(#ma)"><path fill-rule="evenodd" clip-rule="evenodd" d="M8.889 0A8.889 8.889 0 0 0 0 8.889V31.11A8.889 8.889 0 0 0 8.889 40H31.11A8.889 8.889 0 0 0 40 31.111V8.89A8.889 8.889 0 0 0 31.111 0H8.89Zm22.96 15.678a2.223 2.223 0 0 0-3.698-2.467c-.787 1.045-1.611 2.045-2.575 2.933-1.118 1.032-2.25 1.805-3.352 2.263l-.017-4.223A2.223 2.223 0 0 0 20 12.222c-1.204.07-2.222.958-2.222 2.222v9.718c-4.33-1.2-6.667-5.4-6.667-9.718a2.222 2.222 0 1 0-4.444 0c0 8.072 5.577 14.445 13.333 14.445a2.222 2.222 0 0 0 2.222-2.222v-3.474c2.96.236 5.831 2.327 6.902 4.467a2.225 2.225 0 0 0 3.012 1.056 2.222 2.222 0 0 0 .962-3.043c-1.062-2.126-3.045-4.115-5.485-5.413.33-.269.656-.553.978-.849a21.795 21.795 0 0 0 3.258-3.733Z" fill="#fff"/></g><defs><clipPath id="ma"><path fill="#fff" d="M0 0h40v40H0z"/></clipPath></defs></svg></svg>