<!-- icon666.com - MILLIONS OF FREE VECTOR ICONS --><svg fill="none" viewBox="0 0 18 13" xmlns="http://www.w3.org/2000/svg" xmlns:xlink="http://www.w3.org/1999/xlink"><linearGradient id="paint0_linear_405_3699" gradientUnits="userSpaceOnUse" x1="9" x2="9" y1=".25" y2="12.064"><stop offset="0" stop-color="#f97794"></stop><stop offset="1" stop-color="#9708cc"></stop></linearGradient><path d="m17.5762 1.48016c.2652-.31821.2222-.791134-.096-1.056307-.3183-.265173-.7912-.22218-1.0563.096028l-5.3907 6.468809c-1.08286 1.29941-1.84459 2.21067-2.50529 2.80728-.64529.58273-1.09063.76793-1.52789.76793s-.8826-.1852-1.52789-.76793c-.6607-.59662-1.42244-1.50788-2.50527-2.80728l-1.39068-1.66881c-.26517-.31821-.738092-.3612-1.056299-.09603-.318208.26518-.361201.7381-.096028 1.05631l1.429267 1.71512c1.03527 1.24236 1.86436 2.23732 2.61372 2.91392.77405.699 1.56532 1.1547 2.53318 1.1547s1.75912-.4557 2.53318-1.1547c.7494-.6766 1.5784-1.67154 2.6137-2.91388z" fill="url(#paint0_linear_405_3699)"></path></svg>